<svg xmlns="http://www.w3.org/2000/svg" viewBox="0 0 512 512" fill="none">
  <rect width="512" height="512" fill="#2D3748"/>
  <g transform="translate(40, 40) scale(0.85)">
    <path d="M497.000000,232.000000
        C497.000000,244.354233 497.000000,256.708466 496.792908,269.791565
        C493.996887,274.414337 490.960052,277.921112 487.651825,281.227875
        C419.848724,349.001617 352.056458,416.786224 284.294250,484.600861
        C279.815704,489.082825 275.312683,493.497833 270.000000,497.000000
        C257.645782,497.000000 245.291550,497.000000 232.219910,496.779297
        C227.197952,493.667847 223.392914,490.207092 219.732513,486.543304
        C152.993042,419.742554 86.268997,352.926300 19.420248,286.235046
        C11.677966,278.511017 4.342257,270.713776 1.000000,260.000000
        C1.000000,253.978851 1.000000,247.957703 1.217116,241.199509
        C4.562109,231.406372 10.587839,224.483948 17.272142,217.817566
        C83.986244,151.282364 150.627960,84.674347 217.159592,17.956718
        C224.439911,10.656036 232.008698,4.151091 242.000000,1.000000
        C247.688034,1.000000 253.376083,1.000000 259.833130,1.182965
        C267.948822,3.856721 274.468201,7.547808 280.043060,13.134306
        C340.861725,74.079948 401.822418,134.883911 462.591431,195.878906
        C474.323273,207.654343 487.065308,218.501038 497.000000,232.000000
M193.201263,186.701202
        C176.243607,203.664032 159.254196,220.595291 142.341415,237.602737
        C133.667480,246.325195 133.680664,255.614227 142.302078,264.337891
        C151.785660,273.933960 161.333252,283.466919 170.873825,293.006500
        C193.252930,315.383270 215.611298,337.780945 238.049133,360.098694
        C245.792847,367.800964 255.770798,368.209381 262.947540,361.047882
        C295.488434,328.575928 327.981964,296.056274 360.413208,263.474823
        C368.181915,255.670120 368.093445,246.036407 360.347900,238.274765
        C328.463318,206.323929 296.554535,174.397079 264.590332,142.525909
        C255.440430,133.402649 246.414566,133.544754 237.171921,142.750504
        C222.656128,157.208389 208.190536,171.716690 193.201263,186.701202
M85.326775,244.186966
        C92.986572,244.329071 100.652809,244.327545 108.303558,244.671188
        C112.395218,244.854980 114.726440,243.670547 115.867989,239.390961
        C117.611137,232.856003 121.293144,227.304657 126.114029,222.498001
        C158.314209,190.392685 190.490692,158.263580 222.657455,126.124786
        C226.596634,122.189034 230.968735,118.838905 236.211029,116.966118
        C239.610809,115.751541 240.711090,113.746193 240.738449,110.256157
        C240.943390,84.112045 241.318970,57.969311 241.576752,31.825506
        C241.593735,30.102827 242.264999,28.155733 240.197845,26.119717
        C168.315979,98.079193 96.483124,169.989609 24.650267,241.900040
        C24.979664,242.654678 25.309061,243.409317 25.638458,244.163956
        C45.213161,244.163956 64.787865,244.163956 85.326775,244.186966
M442.073425,295.553925
        C452.354248,285.278839 462.635071,275.003723 473.673096,263.971863
        C471.449677,263.624084 470.672607,263.401459 469.893860,263.395386
        C443.230469,263.188019 416.566742,263.017456 389.903595,262.784424
        C387.401245,262.762543 385.929077,263.632996 385.013855,266.062561
        C383.289764,270.639496 380.468475,274.562653 377.009979,278.021057
        C344.015106,311.014893 311.016418,344.004913 278.032288,377.009491
        C274.201569,380.842590 269.912964,384.030945 264.663971,385.463806
        C260.191101,386.684814 258.860626,389.262115 258.737640,393.796387
        C258.032501,419.791931 258.541840,445.788452 258.383057,471.782990
        C258.373444,473.356079 257.762970,475.129120 260.145630,477.390411
        C320.625458,416.943909 381.097137,356.505524 442.073425,295.553925
M349.153076,113.364693
        C320.996490,85.233093 292.839905,57.101498 264.303345,28.590267
        C263.675110,30.166924 263.449860,30.470453 263.447296,30.775866
        C263.217896,57.934303 263.024811,85.093071 262.761475,112.251160
        C262.736328,114.844406 263.899231,116.114433 266.198059,117.049194
        C270.870819,118.949257 274.952728,121.793152 278.539368,125.380959
        C311.054596,157.906891 343.584442,190.418243 376.132782,222.911041
        C380.082092,226.853653 383.362518,231.257095 385.174805,236.531799
        C386.300659,239.808685 388.313873,240.716965 391.559509,240.744583
        C417.715881,240.966995 443.871063,241.325760 470.027100,241.595398
        C471.608429,241.611694 473.398529,242.147263 475.451904,239.753708
        C433.541992,197.815796 391.591553,155.837372 349.153076,113.364693
M133.915573,369.577118
        C167.704834,403.359528 201.494110,437.141937 235.765503,471.406403
        C236.272751,469.686951 236.529572,469.221130 236.530685,468.754700
        C236.593369,442.108521 236.620850,415.462280 236.700790,388.816162
        C236.708405,386.279114 235.428299,384.838745 233.335999,383.775970
        C229.444000,381.798950 226.025406,379.182037 222.937851,376.090698
        C190.690674,343.803894 158.433487,311.527039 126.156761,279.269775
        C123.428833,276.543518 120.800026,273.697479 119.097519,270.266083
        C117.507507,267.061432 115.192200,266.298737 111.860252,266.300537
        C86.712601,266.314209 61.564892,266.172729 36.417114,266.126038
        C35.021248,266.123444 33.433517,265.588135 31.554878,267.572998
        C65.533508,301.436127 99.476357,335.263580 133.915573,369.577118
z" fill="#F7FAFC"/>
  </g>
</svg>
